<svg width="29" height="29" viewBox="0 0 29 29" fill="none" xmlns="http://www.w3.org/2000/svg">
<path d="M11.7115 2.23077H3.90379C2.95571 2.23077 2.23071 2.95577 2.23071 3.90385V26.2115C2.23071 26.4904 2.50956 26.7692 2.78841 26.7692H5.01917C5.35379 26.7692 5.57687 26.5462 5.57687 26.2115V22.8654C5.57687 22.5308 5.79994 22.3077 6.13456 22.3077H9.48071C9.81533 22.3077 10.0384 22.5308 10.0384 22.8654V26.2115C10.0384 26.5462 10.2615 26.7692 10.5961 26.7692H12.2692C12.8826 26.7692 13.3846 26.2673 13.3846 25.6539V3.90385C13.3846 2.95577 12.6596 2.23077 11.7115 2.23077ZM6.69225 19.7981C6.69225 19.9654 6.58071 20.0769 6.4134 20.0769H4.74033C4.57302 20.0769 4.46148 19.9654 4.46148 19.7981V17.0096C4.46148 16.8423 4.57302 16.7308 4.74033 16.7308H6.4134C6.58071 16.7308 6.69225 16.8423 6.69225 17.0096V19.7981ZM6.69225 14.2212C6.69225 14.3885 6.58071 14.5 6.4134 14.5H4.74033C4.57302 14.5 4.46148 14.3885 4.46148 14.2212V11.4327C4.46148 11.2654 4.57302 11.1539 4.74033 11.1539H6.4134C6.58071 11.1539 6.69225 11.2654 6.69225 11.4327V14.2212ZM6.69225 8.64424C6.69225 8.81154 6.58071 8.92308 6.4134 8.92308H4.74033C4.57302 8.92308 4.46148 8.81154 4.46148 8.64424V5.85577C4.46148 5.68847 4.57302 5.57693 4.74033 5.57693H6.4134C6.58071 5.57693 6.69225 5.68847 6.69225 5.85577V8.64424ZM11.1538 19.7981C11.1538 19.9654 11.0422 20.0769 10.8749 20.0769H9.20187C9.03456 20.0769 8.92302 19.9654 8.92302 19.7981V17.0096C8.92302 16.8423 9.03456 16.7308 9.20187 16.7308H10.8749C11.0422 16.7308 11.1538 16.8423 11.1538 17.0096V19.7981ZM11.1538 14.2212C11.1538 14.3885 11.0422 14.5 10.8749 14.5H9.20187C9.03456 14.5 8.92302 14.3885 8.92302 14.2212V11.4327C8.92302 11.2654 9.03456 11.1539 9.20187 11.1539H10.8749C11.0422 11.1539 11.1538 11.2654 11.1538 11.4327V14.2212ZM11.1538 8.64424C11.1538 8.81154 11.0422 8.92308 10.8749 8.92308H9.20187C9.03456 8.92308 8.92302 8.81154 8.92302 8.64424V5.85577C8.92302 5.68847 9.03456 5.57693 9.20187 5.57693H10.8749C11.0422 5.57693 11.1538 5.68847 11.1538 5.85577V8.64424Z" fill="#222D39"/>
<path d="M6.69225 19.7981C6.69225 19.9654 6.58071 20.0769 6.4134 20.0769H4.74033C4.57302 20.0769 4.46148 19.9654 4.46148 19.7981V17.0096C4.46148 16.8423 4.57302 16.7308 4.74033 16.7308H6.4134C6.58071 16.7308 6.69225 16.8423 6.69225 17.0096V19.7981ZM6.69225 14.2212C6.69225 14.3885 6.58071 14.5 6.4134 14.5H4.74033C4.57302 14.5 4.46148 14.3885 4.46148 14.2212V11.4327C4.46148 11.2654 4.57302 11.1539 4.74033 11.1539H6.4134C6.58071 11.1539 6.69225 11.2654 6.69225 11.4327V14.2212ZM6.69225 8.64424C6.69225 8.81155 6.58071 8.92309 6.4134 8.92309H4.74033C4.57302 8.92309 4.46148 8.81155 4.46148 8.64424V5.85578C4.46148 5.68847 4.57302 5.57693 4.74033 5.57693H6.4134C6.58071 5.57693 6.69225 5.68847 6.69225 5.85578V8.64424ZM11.1538 19.7981C11.1538 19.9654 11.0423 20.0769 10.8749 20.0769H9.20187C9.03456 20.0769 8.92302 19.9654 8.92302 19.7981V17.0096C8.92302 16.8423 9.03456 16.7308 9.20187 16.7308H10.8749C11.0423 16.7308 11.1538 16.8423 11.1538 17.0096V19.7981ZM11.1538 14.2212C11.1538 14.3885 11.0423 14.5 10.8749 14.5H9.20187C9.03456 14.5 8.92302 14.3885 8.92302 14.2212V11.4327C8.92302 11.2654 9.03456 11.1539 9.20187 11.1539H10.8749C11.0423 11.1539 11.1538 11.2654 11.1538 11.4327V14.2212ZM11.1538 8.64424C11.1538 8.81155 11.0423 8.92309 10.8749 8.92309H9.20187C9.03456 8.92309 8.92302 8.81155 8.92302 8.64424V5.85578C8.92302 5.68847 9.03456 5.57693 9.20187 5.57693H10.8749C11.0423 5.57693 11.1538 5.68847 11.1538 5.85578V8.64424Z" fill="#E98862"/>
<path d="M25.0962 7.80768H17.2886C16.3405 7.80768 15.6155 8.53268 15.6155 9.48076V26.2115C15.6155 26.4904 15.8943 26.7692 16.1732 26.7692H18.4039C18.7386 26.7692 18.9616 26.5461 18.9616 26.2115V22.8654C18.9616 22.5308 19.1847 22.3077 19.5193 22.3077H22.8655C23.2001 22.3077 23.4232 22.5308 23.4232 22.8654V26.2115C23.4232 26.5461 23.6462 26.7692 23.9809 26.7692H25.6539C26.2674 26.7692 26.7693 26.2673 26.7693 25.6538V9.48076C26.7693 8.53268 26.0443 7.80768 25.0962 7.80768ZM20.077 19.7981C20.077 19.9654 19.9655 20.0769 19.7982 20.0769H18.1251C17.9578 20.0769 17.8462 19.9654 17.8462 19.7981V17.0096C17.8462 16.8423 17.9578 16.7308 18.1251 16.7308H19.7982C19.9655 16.7308 20.077 16.8423 20.077 17.0096V19.7981ZM20.077 14.2211C20.077 14.3884 19.9655 14.5 19.7982 14.5H18.1251C17.9578 14.5 17.8462 14.3884 17.8462 14.2211V11.4327C17.8462 11.2654 17.9578 11.1538 18.1251 11.1538H19.7982C19.9655 11.1538 20.077 11.2654 20.077 11.4327V14.2211ZM24.5386 19.7981C24.5386 19.9654 24.427 20.0769 24.2597 20.0769H22.5866C22.4193 20.0769 22.3078 19.9654 22.3078 19.7981V17.0096C22.3078 16.8423 22.4193 16.7308 22.5866 16.7308H24.2597C24.427 16.7308 24.5386 16.8423 24.5386 17.0096V19.7981ZM24.5386 14.2211C24.5386 14.3884 24.427 14.5 24.2597 14.5H22.5866C22.4193 14.5 22.3078 14.3884 22.3078 14.2211V11.4327C22.3078 11.2654 22.4193 11.1538 22.5866 11.1538H24.2597C24.427 11.1538 24.5386 11.2654 24.5386 11.4327V14.2211Z" fill="#222D39"/>
<path d="M20.077 19.7981C20.077 19.9654 19.9655 20.0769 19.7982 20.0769H18.1251C17.9578 20.0769 17.8462 19.9654 17.8462 19.7981V17.0096C17.8462 16.8423 17.9578 16.7308 18.1251 16.7308H19.7982C19.9655 16.7308 20.077 16.8423 20.077 17.0096V19.7981ZM20.077 14.2211C20.077 14.3885 19.9655 14.5 19.7982 14.5H18.1251C17.9578 14.5 17.8462 14.3885 17.8462 14.2211V11.4327C17.8462 11.2654 17.9578 11.1538 18.1251 11.1538H19.7982C19.9655 11.1538 20.077 11.2654 20.077 11.4327V14.2211ZM24.5386 19.7981C24.5386 19.9654 24.427 20.0769 24.2597 20.0769H22.5866C22.4193 20.0769 22.3078 19.9654 22.3078 19.7981V17.0096C22.3078 16.8423 22.4193 16.7308 22.5866 16.7308H24.2597C24.427 16.7308 24.5386 16.8423 24.5386 17.0096V19.7981ZM24.5386 14.2211C24.5386 14.3885 24.427 14.5 24.2597 14.5H22.5866C22.4193 14.5 22.3078 14.3885 22.3078 14.2211V11.4327C22.3078 11.2654 22.4193 11.1538 22.5866 11.1538H24.2597C24.427 11.1538 24.5386 11.2654 24.5386 11.4327V14.2211Z" fill="#E98862"/>
</svg>
