<svg width="29" height="30" viewBox="0 0 29 30" fill="none" xmlns="http://www.w3.org/2000/svg">
<path d="M28.3565 13.1711L26.3844 10.8799C26.0074 10.4449 25.7029 9.63283 25.7029 9.05279V6.58764C25.7029 5.05055 24.4413 3.78898 22.9042 3.78898H20.439C19.8735 3.78898 19.047 3.48446 18.6119 3.10743L16.3208 1.13532C15.3202 0.279765 13.6816 0.279765 12.6666 1.13532L10.3899 3.12194C9.95485 3.48446 9.1283 3.78898 8.56276 3.78898H6.05411C4.51702 3.78898 3.25545 5.05055 3.25545 6.58764V9.06729C3.25545 9.63283 2.95093 10.4449 2.58841 10.8799L0.630788 13.1856C-0.210263 14.1861 -0.210263 15.8102 0.630788 16.8108L2.58841 19.1164C2.95093 19.5514 3.25545 20.3635 3.25545 20.929V23.4087C3.25545 24.9458 4.51702 26.2073 6.05411 26.2073H8.56276C9.1283 26.2073 9.95485 26.5119 10.3899 26.8889L12.6811 28.861C13.6816 29.7165 15.3202 29.7165 16.3353 28.861L18.6264 26.8889C19.0615 26.5119 19.8735 26.2073 20.4535 26.2073H22.9187C24.4558 26.2073 25.7174 24.9458 25.7174 23.4087V20.9435C25.7174 20.378 26.0219 19.5514 26.3989 19.1164L28.371 16.8253C29.2121 15.8247 29.2121 14.1716 28.3565 13.1711ZM20.526 12.2575L13.5221 19.2614C13.3191 19.4644 13.0436 19.5804 12.7536 19.5804C12.4636 19.5804 12.188 19.4644 11.985 19.2614L8.47576 15.7522C8.05523 15.3317 8.05523 14.6356 8.47576 14.2151C8.89628 13.7946 9.59233 13.7946 10.0129 14.2151L12.7536 16.9558L18.9889 10.7204C19.4095 10.2999 20.1055 10.2999 20.526 10.7204C20.9466 11.1409 20.9466 11.837 20.526 12.2575Z" fill="#222D39"/>
<path d="M20.526 12.2574L13.5221 19.2614C13.3191 19.4644 13.0436 19.5804 12.7536 19.5804C12.4636 19.5804 12.188 19.4644 11.985 19.2614L8.47576 15.7522C8.05523 15.3316 8.05523 14.6356 8.47576 14.2151C8.89628 13.7945 9.59233 13.7945 10.0129 14.2151L12.7536 16.9557L18.9889 10.7203C19.4095 10.2998 20.1055 10.2998 20.526 10.7203C20.9466 11.1409 20.9466 11.8369 20.526 12.2574Z" fill="#E98862"/>
</svg>
