<svg width="32" height="31" viewBox="0 0 32 31" fill="none" xmlns="http://www.w3.org/2000/svg">
<path fill-rule="evenodd" clip-rule="evenodd" d="M19.1622 1.21075C17.346 -0.403584 14.6094 -0.403584 12.7932 1.21075L0.536295 12.1058C-0.123248 12.692 -0.182653 13.702 0.4036 14.3615C0.989853 15.0209 1.99975 15.0804 2.65928 14.4941L3.19556 14.0175V22.9917C3.19548 24.4081 3.19541 25.6285 3.3268 26.6059C3.46761 27.6532 3.78516 28.6572 4.59948 29.4715C5.4138 30.2858 6.41776 30.6033 7.46513 30.7442C8.44242 30.8756 9.66281 30.8754 11.0792 30.8754H20.8761C22.2925 30.8754 23.5129 30.8756 24.4903 30.7442C25.5376 30.6033 26.5416 30.2858 27.3559 29.4715C28.1702 28.6572 28.4877 27.6532 28.6286 26.6059C28.76 25.6285 28.76 24.4081 28.7598 22.9919V14.0175L29.296 14.4941C29.9556 15.0804 30.9655 15.0209 31.5518 14.3615C32.138 13.702 32.0787 12.692 31.4191 12.1058L19.1622 1.21075ZM15.9777 21.2888C15.0952 21.2888 14.3799 22.0041 14.3799 22.8866V26.0821C14.3799 26.9646 13.6646 27.6799 12.7821 27.6799C11.8997 27.6799 11.1844 26.9646 11.1844 26.0821V22.8866C11.1844 20.2392 13.3303 18.0933 15.9777 18.0933C18.625 18.0933 20.771 20.2392 20.771 22.8866V26.0821C20.771 26.9646 20.0557 27.6799 19.1732 27.6799C18.2908 27.6799 17.5755 26.9646 17.5755 26.0821V22.8866C17.5755 22.0041 16.8601 21.2888 15.9777 21.2888Z" fill="#222D39"/>
<path fill-rule="evenodd" clip-rule="evenodd" d="M15.9776 21.2888C16.8601 21.2888 17.5754 22.0041 17.5754 22.8866V26.0821C17.5754 26.9646 18.2907 27.6799 19.1732 27.6799C20.0556 27.6799 20.7709 26.9646 20.7709 26.0821V22.8866C20.7709 20.2392 18.625 18.0933 15.9776 18.0933C13.3303 18.0933 11.1843 20.2392 11.1843 22.8866V26.0821C11.1843 26.9646 11.8997 27.6799 12.7821 27.6799C13.6645 27.6799 14.3799 26.9646 14.3799 26.0821V22.8866C14.3799 22.0041 15.0952 21.2888 15.9776 21.2888Z" fill="#E98862"/>
</svg>
