<svg width="29" height="29" viewBox="0 0 29 29" fill="none" xmlns="http://www.w3.org/2000/svg">
<path fill-rule="evenodd" clip-rule="evenodd" d="M14.5 0C11.7802 0 9.49574 0.14384 7.61261 0.562339C5.71303 0.984507 4.13418 1.7052 2.91969 2.91969C1.7052 4.13418 0.984507 5.71303 0.562339 7.61261C0.14384 9.49574 0 11.7802 0 14.5C0 17.2198 0.14384 19.5042 0.562339 21.3874C0.984507 23.287 1.7052 24.8658 2.91969 26.0803C4.13418 27.2948 5.71303 28.0155 7.61261 28.4377C9.49574 28.8562 11.7802 29 14.5 29C17.2198 29 19.5042 28.8562 21.3874 28.4377C23.287 28.0155 24.8658 27.2948 26.0803 26.0803C27.2948 24.8658 28.0155 23.287 28.4377 21.3874C28.8562 19.5042 29 17.2198 29 14.5C29 11.7802 28.8562 9.49574 28.4377 7.61261C28.0155 5.71303 27.2948 4.13418 26.0803 2.91969C24.8658 1.7052 23.287 0.984507 21.3874 0.562339C19.5042 0.14384 17.2198 0 14.5 0ZM14.5 5.8C15.3008 5.8 15.95 6.4492 15.95 7.25V7.38761C16.8126 7.55777 17.5037 7.86511 18.0318 8.19124C18.4252 8.43413 18.7207 8.68254 18.9264 8.88183C19.1003 9.05019 19.1974 9.16203 19.2901 9.28685L19.2911 9.28815C19.7671 9.93217 19.6308 10.8401 18.9869 11.3161C18.3515 11.7857 17.4582 11.6583 16.9773 11.0362C16.9396 10.9927 16.6354 10.6416 15.95 10.3891V13.197C18.2633 13.687 19.7563 15.3496 19.7563 17.4C19.7563 19.4505 18.2633 21.113 15.95 21.603V21.75C15.95 22.5508 15.3008 23.2 14.5 23.2C13.6992 23.2 13.05 22.5508 13.05 21.75V21.5834C12.288 21.4071 11.6457 21.1158 11.1525 20.8339C10.6879 20.5686 10.23 20.2551 9.84972 19.8753C9.28347 19.3091 9.28348 18.3909 9.84975 17.8247C10.4133 17.2611 11.3253 17.2585 11.8922 17.8166C11.9176 17.8407 12.3881 18.2628 13.05 18.5441V15.803C10.7367 15.313 9.24375 13.6505 9.24375 11.6C9.24375 9.54952 10.7367 7.88692 13.05 7.39702V7.25C13.05 6.4492 13.6992 5.8 14.5 5.8Z" fill="#222D39"/>
<path fill-rule="evenodd" clip-rule="evenodd" d="M14.5 5.79999C15.3008 5.79999 15.95 6.44918 15.95 7.24999V7.38759C16.8126 7.55775 17.5037 7.86509 18.0318 8.19123C18.4252 8.43412 18.7207 8.68253 18.9264 8.88182C19.1003 9.05018 19.1974 9.16202 19.2901 9.28683L19.2911 9.28814C19.7671 9.93216 19.6308 10.8401 18.9869 11.3161C18.3515 11.7857 17.4582 11.6583 16.9773 11.0362C16.9396 10.9927 16.6354 10.6415 15.95 10.3891V13.197C18.2633 13.687 19.7563 15.3495 19.7563 17.4C19.7563 19.4504 18.2633 21.113 15.95 21.603V21.75C15.95 22.5508 15.3008 23.2 14.5 23.2C13.6992 23.2 13.05 22.5508 13.05 21.75V21.5834C12.288 21.4071 11.6457 21.1158 11.1525 20.8339C10.6879 20.5685 10.23 20.255 9.84972 19.8753C9.28347 19.3091 9.28348 18.3909 9.84975 17.8247C10.4133 17.2611 11.3253 17.2585 11.8922 17.8166C11.9176 17.8406 12.3881 18.2627 13.05 18.544V15.803C10.7367 15.313 9.24375 13.6504 9.24375 11.6C9.24375 9.5495 10.7367 7.8869 13.05 7.397V7.24999C13.05 6.44918 13.6992 5.79999 14.5 5.79999Z" fill="#E98862"/>
<path fill-rule="evenodd" clip-rule="evenodd" d="M16.1315 16.3063C16.0488 16.2583 15.95 16.3215 15.95 16.4172V18.383C15.95 18.4787 16.0488 18.5419 16.1315 18.4937C16.704 18.161 16.8561 17.6755 16.8561 17.4C16.8561 17.1246 16.704 16.639 16.1315 16.3063Z" fill="#222D39"/>
<path fill-rule="evenodd" clip-rule="evenodd" d="M13.05 10.6426C13.05 10.5349 12.9388 10.4639 12.8466 10.5192C12.2921 10.8515 12.1438 11.3281 12.1438 11.6C12.1438 11.8719 12.2921 12.3485 12.8466 12.6808C12.9388 12.7361 13.05 12.665 13.05 12.5574V10.6426Z" fill="#222D39"/>
</svg>
