<svg width="24" height="21" viewBox="0 0 24 21" fill="none" xmlns="http://www.w3.org/2000/svg">
<path d="M20.6084 6.90807C19.3408 5.64028 17.5894 4.85629 15.6547 4.85629C13.7203 4.85629 11.9687 5.64048 10.7011 6.90807C9.43332 8.17565 8.64933 9.92723 8.64933 11.8616C8.64933 13.7964 9.43351 15.5478 10.7011 16.8154C11.9687 18.083 13.7201 18.8673 15.6545 18.8673C17.5892 18.8673 19.3406 18.083 20.6082 16.8154C21.8758 15.5478 22.6604 13.7964 22.6604 11.8614C22.6604 9.92704 21.876 8.17565 20.6084 6.90807Z" fill="white"/>
<path d="M16.6554 3.57581C18.5597 3.80355 20.2671 4.6723 21.5558 5.9606C23.066 7.47077 24 9.55731 24 11.8614C24 14.1659 23.0662 16.2525 21.5558 17.7628C20.0455 19.2732 17.9589 20.2074 15.6544 20.2074C13.3499 20.2074 11.2637 19.2732 9.75338 17.7628C8.24301 16.2525 7.30902 14.1659 7.30902 11.8614C7.30902 9.55711 8.24321 7.47077 9.75338 5.9606C11.1368 4.57719 13.004 3.67718 15.0788 3.53577V2.13596C15.0788 2.11467 15.08 2.09377 15.0815 2.07287H13.5183C13.2618 2.07287 13.0524 1.8631 13.0524 1.60685V0.466019C13.0524 0.209767 13.2618 0 13.5183 0H18.2161C18.4726 0 18.6824 0.209767 18.6824 0.466019V1.60685C18.6824 1.8633 18.4726 2.07287 18.2161 2.07287H16.6528C16.6548 2.09357 16.6556 2.11467 16.6556 2.13596L16.6554 3.57581ZM16.3247 10.6149C16.7683 10.8538 17.0696 11.3226 17.0696 11.8616C17.0696 12.6433 16.436 13.2773 15.6544 13.2773C14.8728 13.2773 14.2392 12.6433 14.2392 11.8616C14.2392 11.3226 14.5409 10.8538 14.9845 10.6149V7.37194C14.9845 7.00182 15.2843 6.70181 15.6544 6.70181C16.0245 6.70181 16.3247 7.00182 16.3247 7.37194V10.6149ZM23.15 6.09673C23.4738 5.32368 23.4353 4.5139 22.9718 3.97132C22.4156 3.32034 21.4101 3.24573 20.4763 3.70374C21.4654 4.38207 22.3634 5.17114 23.15 6.09673ZM8.15922 6.09673C7.8352 5.32368 7.87367 4.5139 8.33715 3.97132C8.89341 3.32034 9.89889 3.24573 10.8327 3.70374C9.84381 4.38207 8.94556 5.17114 8.15922 6.09673ZM20.6083 6.90807C19.3408 5.64028 17.5894 4.85629 15.6546 4.85629C13.7202 4.85629 11.9686 5.64048 10.701 6.90807C9.43326 8.17565 8.64927 9.92723 8.64927 11.8616C8.64927 13.7964 9.43345 15.5478 10.701 16.8154C11.9686 18.083 13.72 18.8673 15.6544 18.8673C17.5892 18.8673 19.3406 18.083 20.6082 16.8154C21.8757 15.5478 22.6603 13.7964 22.6603 11.8614C22.6603 9.92704 21.8759 8.17565 20.6083 6.90807Z" fill="white"/>
<path d="M16.6554 3.57581C18.5598 3.80355 20.2672 4.6723 21.5559 5.9606C23.066 7.47077 24 9.55731 24 11.8614C24 14.1659 23.0662 16.2525 21.5559 17.7628C20.0455 19.2732 17.959 20.2074 15.6545 20.2074C13.35 20.2074 11.2638 19.2732 9.75344 17.7628C8.24307 16.2525 7.30908 14.1659 7.30908 11.8614C7.30908 9.55711 8.24327 7.47077 9.75344 5.9606C11.1368 4.57719 13.0041 3.67718 15.0789 3.53577V2.13596C15.0789 2.11467 15.08 2.09377 15.0816 2.07287H13.5183C13.2619 2.07287 13.0525 1.8631 13.0525 1.60685V0.466019C13.0525 0.209767 13.2619 0 13.5183 0H18.2162C18.4726 0 18.6824 0.209767 18.6824 0.466019V1.60685C18.6824 1.8633 18.4726 2.07287 18.2162 2.07287H16.6529C16.6549 2.09357 16.6556 2.11467 16.6556 2.13596L16.6554 3.57581ZM23.15 6.09673C23.4739 5.32368 23.4354 4.5139 22.9719 3.97132C22.4157 3.32034 21.4102 3.24573 20.4764 3.70374C21.4654 4.38207 22.3635 5.17114 23.15 6.09673ZM8.15928 6.09673C7.83526 5.32368 7.87373 4.5139 8.33721 3.97132C8.89347 3.32034 9.89895 3.24573 10.8327 3.70374C9.84387 4.38207 8.94562 5.17114 8.15928 6.09673ZM20.6084 6.90807C19.3408 5.64028 17.5894 4.85629 15.6547 4.85629C13.7203 4.85629 11.9687 5.64048 10.7011 6.90807C9.43332 8.17565 8.64933 9.92723 8.64933 11.8616C8.64933 13.7964 9.43351 15.5478 10.7011 16.8154C11.9687 18.083 13.7201 18.8673 15.6545 18.8673C17.5892 18.8673 19.3406 18.083 20.6082 16.8154C21.8758 15.5478 22.6604 13.7964 22.6604 11.8614C22.6604 9.92704 21.876 8.17565 20.6084 6.90807Z" fill="#222D39"/>
<path d="M16.3247 10.6149C16.7683 10.8538 17.0697 11.3226 17.0697 11.8616C17.0697 12.6433 16.4361 13.2773 15.6544 13.2773C14.8728 13.2773 14.2392 12.6433 14.2392 11.8616C14.2392 11.3226 14.5409 10.8538 14.9845 10.6149V7.37194C14.9845 7.00182 15.2843 6.70181 15.6544 6.70181C16.0245 6.70181 16.3247 7.00182 16.3247 7.37194V10.6149ZM2.05607 16.5232C1.68595 16.5232 1.38595 16.223 1.38595 15.8529C1.38595 15.4827 1.68595 15.1829 2.05607 15.1829H5.84087C6.21099 15.1829 6.5108 15.4827 6.5108 15.8529C6.5108 16.223 6.21079 16.5232 5.84087 16.5232H2.05607ZM0.669927 12.5829C0.299807 12.5829 0 12.2831 0 11.913C0 11.5429 0.300002 11.2427 0.669927 11.2427H5.05414C5.42407 11.2427 5.72407 11.5429 5.72407 11.913C5.72407 12.2831 5.42407 12.5829 5.05414 12.5829H0.669927ZM2.02228 8.74499C1.65216 8.74499 1.35235 8.44499 1.35235 8.07507C1.35235 7.70514 1.65236 7.40494 2.02228 7.40494H5.77798C6.1481 7.40494 6.4481 7.70495 6.4481 8.07507C6.4481 8.44519 6.1481 8.74499 5.77798 8.74499H2.02228ZM20.6084 6.90807C19.3408 5.64028 17.5894 4.85629 15.6546 4.85629C13.7202 4.85629 11.9687 5.64048 10.7011 6.90807C9.43328 8.17565 8.64929 9.92723 8.64929 11.8616C8.64929 13.7964 9.43348 15.5478 10.7011 16.8154C11.9687 18.083 13.72 18.8673 15.6544 18.8673C17.5892 18.8673 19.3406 18.083 20.6082 16.8154C21.8758 15.5478 22.6603 13.7964 22.6603 11.8614C22.6603 9.92704 21.876 8.17565 20.6084 6.90807Z" fill="#222D39"/>
<path d="M2.05607 16.5231C1.68595 16.5231 1.38595 16.2229 1.38595 15.8528C1.38595 15.4827 1.68595 15.1829 2.05607 15.1829H5.84087C6.21099 15.1829 6.5108 15.4827 6.5108 15.8528C6.5108 16.2229 6.21079 16.5231 5.84087 16.5231H2.05607ZM0.669927 12.5829C0.299807 12.5829 0 12.2831 0 11.913C0 11.5428 0.300002 11.2426 0.669927 11.2426H5.05414C5.42407 11.2426 5.72407 11.5428 5.72407 11.913C5.72407 12.2831 5.42407 12.5829 5.05414 12.5829H0.669927ZM2.02228 8.74496C1.65216 8.74496 1.35235 8.44496 1.35235 8.07503C1.35235 7.70511 1.65236 7.40491 2.02228 7.40491H5.77798C6.1481 7.40491 6.4481 7.70491 6.4481 8.07503C6.4481 8.44515 6.1481 8.74496 5.77798 8.74496H2.02228Z" fill="#FF6C59"/>
</svg>
