<svg width="18" height="24" viewBox="0 0 18 24" fill="none" xmlns="http://www.w3.org/2000/svg">
<path d="M11.9999 7.49993H17.9999V21.7498C17.9999 22.9924 16.9926 23.9998 15.7499 23.9998H2.24993C1.00728 23.9998 -6.10352e-05 22.992 -6.10352e-05 21.7498V2.24998C-6.10352e-05 1.00733 1.00728 0 2.24993 0H10.4999L10.5001 5.99995C10.4999 6.82963 11.1702 7.49993 11.9999 7.49993ZM2.99993 4.12496C2.99993 4.33027 3.17009 4.49996 3.37493 4.49996H7.12492C7.33117 4.49996 7.49992 4.33027 7.49992 4.12496V3.37497C7.49992 3.17013 7.33117 2.99997 7.12492 2.99997H3.37493C3.17009 2.99997 2.99993 3.17013 2.99993 3.37497V4.12496ZM3.37493 7.49993H7.12492C7.33117 7.49993 7.49992 7.33118 7.49992 7.12494V6.37494C7.49992 6.16869 7.33117 5.99995 7.12492 5.99995H3.37493C3.17009 5.99995 2.99993 6.16869 2.99993 6.37494V7.12494C2.99993 7.33118 3.17009 7.49993 3.37493 7.49993ZM9.25773 14.8499L8.95773 14.7749C7.88898 14.4467 7.91242 14.2546 7.94992 14.0858C8.01437 13.7196 8.72758 13.6302 9.36882 13.7284C9.63104 13.7679 9.91867 13.8602 10.1934 13.9555C10.6804 14.1239 11.2166 13.8646 11.3863 13.377C11.5562 12.8876 11.2977 12.3533 10.8084 12.1831C10.47 12.0667 10.1938 11.992 9.93835 11.936V11.6249C9.93835 11.1079 9.51868 10.6874 9.00086 10.6874C8.48303 10.6874 8.06336 11.1078 8.06336 11.6249V11.9058C7.01242 12.1311 6.2718 12.7874 6.10305 13.7671C5.75589 15.7752 7.65883 16.3334 8.47117 16.572L8.74361 16.6512C10.1161 17.0437 10.0936 17.1757 10.0524 17.4143C9.9879 17.7805 9.2747 17.8713 8.63158 17.7717C8.30636 17.7234 7.89048 17.5739 7.52252 17.4421L7.31303 17.366C6.82506 17.1975 6.28975 17.4509 6.11678 17.9388C5.94466 18.4267 6.20027 18.9625 6.68866 19.1355L6.88863 19.2058C7.25228 19.3365 7.65644 19.4678 8.06331 19.5579V19.8748C8.06331 20.3918 8.48298 20.8123 9.00081 20.8123C9.51864 20.8123 9.93831 20.3919 9.93831 19.8748V19.5817C10.9864 19.357 11.7294 18.7131 11.8991 17.7334C12.2483 15.703 10.303 15.1452 9.25773 14.8499Z" fill="#222D39"/>
</svg>
